:SAMPLES-PER-SECOND 30
:FULLY-SPECIFIED
:DEGREES
125
root  42.5744 37.7899 0.697147 65.2517 83.4188 68.3395
RightUpLeg  2.54494 -0.379342 -7.5635
RightLeg  51.0737 7.81231 -3.38777
RightFoot  25.485 -2.39677 6.86831
RightToes  -4.65663e-010 -1.59028e-015 9.93923e-017
Spine  4.63343 1.80129 -5.31904
Spine1  9.58451 2.19749 -6.20505
HEad  -23.0582 -3.2122 7.08054
LeftShoulder1  9.93923e-017 0 1.22299e-017
LeftArm  -7.37355 42.2646 -71.6827
LeftForeArm  1.19548 -3.33314 -6.55012
LeftHand  1.08791 8.61046 -9.4812
RightShoulder  1.98785e-016 -4.96962e-017 1.55301e-017
RightArm  25.5443 -27.3388 90.6342
RightForeArm  -43.549 20.1476 -15.5109
RightHand  1.48662 -11.904 -7.85428
LeftUpLeg  -19.5732 -9.17691 -8.28749
LeftLeg  23.8235 1.09814 5.0233
LeftFoot  -2.22006 -0.0111675 0.03755
LeftToes  3.34876e-009 -9.68256e-011 -6.12847e-011
126
root  44.3372 38.1532 0.61623 68.619 84.0598 71.8656
RightUpLeg  -2.59808 -0.959864 -6.62755
RightLeg  55.9317 7.18638 -5.22396
RightFoot  22.6831 -1.79716 5.56542
RightToes  -4.65663e-010 -1.59028e-015 9.93923e-017
Spine  4.2277 1.08836 -6.01219
Spine1  9.56917 0.985018 -5.02464
HEad  -21.5877 -2.27855 6.54491
LeftShoulder1  9.93923e-017 0 1.22299e-017
LeftArm  -7.77862 37.1303 -75.0786
LeftForeArm  -2.5127 -6.50168 -5.6843
LeftHand  1.06592 7.99681 -7.60069
RightShoulder  1.98785e-016 -4.96962e-017 1.55301e-017
RightArm  19.4715 -32.6163 89.9812
RightForeArm  -33.0426 17.8677 -5.55531
RightHand  1.39972 -11.7274 -6.65512
LeftUpLeg  -15.8351 -9.85047 -8.48425
LeftLeg  22.836 1.30182 5.05943
LeftFoot  -3.96698 -0.0136802 0.018033
LeftToes  3.34876e-009 -9.68256e-011 -6.12847e-011
127
root  46.1267 38.5407 0.574332 76.3458 85.4007 79.6514
RightUpLeg  -7.46463 -1.82483 -4.83537
RightLeg  57.9997 7.61023 -4.97426
RightFoot  17.0858 -1.09714 4.05741
RightToes  -4.65663e-010 -1.59028e-015 9.93923e-017
Spine  3.92306 0.179913 -6.48883
Spine1  9.02312 -0.525796 -3.08797
HEad  -20.0212 -1.33079 5.95733
LeftShoulder1  9.93923e-017 0 1.22299e-017
LeftArm  -0.00634184 32.7424 -78.1218
LeftForeArm  -14.285 -14.6061 -1.20073
LeftHand  1.02691 7.40055 -5.13833
RightShoulder  1.98785e-016 -4.96962e-017 1.55301e-017
RightArm  19.6747 -38.6468 88.4839
RightForeArm  -27.7372 15.8815 -0.23235
RightHand  1.36232 -11.7362 -5.85301
LeftUpLeg  -11.926 -8.84346 -8.15703
LeftLeg  21.081 -0.546445 4.70322
LeftFoot  -5.49476 -0.0394292 0.337246
LeftToes  3.34876e-009 -9.68256e-011 -6.12847e-011
128
root  47.8895 38.8225 0.572176 98.4063 86.5211 101.61
RightUpLeg  -12.0943 -2.74183 -3.07083
RightLeg  57.5497 8.40624 -3.4767
RightFoot  12.4291 -0.748432 3.31766
RightToes  -4.65663e-010 -1.59028e-015 9.93923e-017
Spine  3.7976 -0.932168 -7.48784
Spine1  8.18539 -2.32795 -0.571001
HEad  -18.9351 -0.173255 5.26318
LeftShoulder1  9.93923e-017 0 1.22299e-017
LeftArm  18.4565 28.9231 -80.5511
LeftForeArm  -37.4557 -22.4886 10.9431
LeftHand  0.990305 7.02517 -3.2998
RightShoulder  1.98785e-016 -4.96962e-017 1.55301e-017
RightArm  20.3568 -45.2889 85.7547
RightForeArm  -23.9223 15.286 0.551872
RightHand  1.33702 -11.7714 -5.21397
LeftUpLeg  -8.43281 -6.02759 -7.40411
LeftLeg  19.5007 -4.64892 3.76422
LeftFoot  -7.00194 -0.0666529 0.831901
LeftToes  3.34876e-009 -9.68256e-011 -6.12847e-011
129
root  49.643 39.0331 0.588987 130.626 86.4121 133.827
RightUpLeg  -16.077 -3.63896 -1.77681
RightLeg  54.7391 8.9881 -2.11464
RightFoot  9.04741 -0.565705 2.89974
RightToes  -4.65663e-010 -1.59028e-015 9.93923e-017
Spine  3.91983 -2.15492 -8.86953
Spine1  7.35688 -4.17842 2.21426
HEad  -18.6148 0.972813 4.70937
LeftShoulder1  9.93923e-017 0 1.22299e-017
LeftArm  20.9713 24.5851 -80.8212
LeftForeArm  -41.5294 -28.4348 18.1477
LeftHand  0.967303 6.83904 -2.36715
RightShoulder  1.98785e-016 -4.96962e-017 1.55301e-017
RightArm  24.0273 -52.2672 81.7088
RightForeArm  -26.5359 15.967 -0.438207
RightHand  1.32117 -11.7987 -4.81172
LeftUpLeg  -4.96319 -3.06389 -6.25313
LeftLeg  17.9916 -9.25724 2.52401
LeftFoot  -8.00815 -0.0722528 1.02162
LeftToes  3.34876e-009 -9.68256e-011 -6.12847e-011
130
root  51.3661 39.1695 0.623962 151.059 85.2639 154.509
RightUpLeg  -19.0866 -4.3617 -1.10087
RightLeg  49.5452 9.069 -1.48335
RightFoot  6.1786 -0.443275 2.61586
RightToes  -4.65663e-010 -1.59028e-015 9.93923e-017
Spine  4.38882 -3.24128 -10.3594
Spine1  6.68851 -5.76691 4.83067
HEad  -18.8369 1.84145 4.46167
LeftShoulder1  9.93923e-017 0 1.22299e-017
LeftArm  17.0599 19.6654 -80.0365
LeftForeArm  -36.8612 -34.1671 21.2636
LeftHand  0.939281 6.6299 -1.7704
RightShoulder  1.98785e-016 -4.96962e-017 1.55301e-017
RightArm  28.0186 -58.6897 76.2302
RightForeArm  -31.3112 17.2459 -2.96591
RightHand  1.32195 -11.859 -4.66121
LeftUpLeg  -1.39369 -1.06572 -5.00932
LeftLeg  16.6571 -12.8854 1.5426
LeftFoot  -8.6916 -0.0526715 0.852689
LeftToes  3.34876e-009 -9.68256e-011 -6.12847e-011
131
root  53.0442 39.1635 0.69145 158.42 84.0465 162.077
RightUpLeg  -21.1654 -4.63478 -1.0179
RightLeg  41.874 8.88939 -1.10651
RightFoot  4.47552 -0.433905 2.82093
RightToes  -4.65663e-010 -1.59028e-015 9.93923e-017
Spine  4.86389 -4.05305 -11.8034
Spine1  6.21302 -6.91506 6.87391
HEad  -19.1351 2.45136 4.42713
LeftShoulder1  9.93923e-017 0 1.22299e-017
LeftArm  14.3334 14.6635 -79.0709
LeftForeArm  -33.6224 -38.9448 23.7627
LeftHand  0.922157 6.51994 -1.17261
RightShoulder  1.98785e-016 -4.96962e-017 1.55301e-017
RightArm  29.9381 -63.6477 69.8665
RightForeArm  -33.0705 17.6915 -4.23124
RightHand  1.32912 -11.9245 -4.62632
LeftUpLeg  1.82556 -0.0550387 -4.01916
LeftLeg  15.9417 -15.1153 1.07091
LeftFoot  -9.73422 -0.0532224 0.83769
LeftToes  3.34876e-009 -9.68256e-011 -6.12847e-011
132
root  54.7002 39.0846 0.765291 162.325 83.2908 165.856
RightUpLeg  -22.2892 -4.11852 -1.09621
RightLeg  31.4378 9.01073 -0.461364
RightFoot  4.63957 -0.497606 3.19508
RightToes  -4.65663e-010 -1.59028e-015 9.93923e-017
Spine  4.89842 -4.69953 -12.4903
Spine1  5.96498 -7.6494 8.25447
HEad  -19.2194 2.89762 4.41755
LeftShoulder1  9.93923e-017 0 1.22299e-017
LeftArm  12.1618 10.1516 -78.1385
LeftForeArm  -32.5473 -42.5005 25.8608
LeftHand  0.941092 6.67887 -0.678283
RightShoulder  1.98785e-016 -4.96962e-017 1.55301e-017
RightArm  28.2808 -66.9114 63.2946
RightForeArm  -29.0691 16.7806 -2.85335
RightHand  1.35091 -12.0537 -4.71268
LeftUpLeg  4.76639 0.332791 -3.08352
LeftLeg  15.0619 -16.1348 1.02896
LeftFoot  -10.9012 -0.0502568 0.839307
LeftToes  3.34876e-009 -9.68256e-011 -6.12847e-011
133
root  56.3413 39.0533 0.810417 167.639 82.9681 170.906
RightUpLeg  -22.0836 -2.26977 -1.1944
RightLeg  18.2312 9.03764 0.0512214
RightFoot  5.36743 -0.496293 3.06567
RightToes  -4.65663e-010 -1.59028e-015 9.93923e-017
Spine  4.66071 -5.21207 -11.9895
Spine1  6.03819 -8.12311 9.15385
HEad  -19.206 3.1702 4.29737
LeftShoulder1  9.93923e-017 0 1.22299e-017
LeftArm  10.1396 6.50345 -77.423
LeftForeArm  -33.0316 -45.0183 27.4304
LeftHand  0.97512 6.93578 -0.198644
RightShoulder  1.98785e-016 -4.96962e-017 1.55301e-017
RightArm  25.2134 -68.7728 57.2432
RightForeArm  -22.6932 14.9823 -0.370968
RightHand  1.41345 -12.3859 -5.03269
LeftUpLeg  7.86676 0.514322 -1.85843
LeftLeg  13.2444 -16.4797 1.22374
LeftFoot  -11.3147 -0.0316491 -0.11091
LeftToes  3.34876e-009 -9.68256e-011 -6.12847e-011
